HIERARCHY
ROOT Hips
{
  OFFSET 1.44925e-005 102.336 -0.101585
  CHANNELS 6 Xposition Yposition Zposition Zrotation Xrotation Yrotation
  JOINT LeftUpLeg
  {
    OFFSET 8.9458 -8.66707 0.101652
    CHANNELS 3 Zrotation Xrotation Yrotation
    JOINT LeftLeg
    {
      OFFSET 0 -44.4227 1.3727
      CHANNELS 3 Zrotation Xrotation Yrotation
      JOINT LeftFoot
      {
        OFFSET -0.253549 -42.0924 -1.46059
        CHANNELS 3 Zrotation Xrotation Yrotation
        JOINT LeftToes
        {
          OFFSET -0.04 -4.41509 8.4991
          CHANNELS 3 Zrotation Xrotation Yrotation
          End Site
          {
            OFFSET 0.08 -0.047448 9.77979
          }
        }
      }
    }
  }
  JOINT Spine
  {
    OFFSET 0 11.8905 0
    CHANNELS 3 Zrotation Xrotation Yrotation
    JOINT Spine1
    {
      OFFSET 0 25.6574 0.127663
      CHANNELS 3 Zrotation Xrotation Yrotation
      JOINT RightShoulder
      {
        OFFSET -8.99 -0.362252 -0.22
        CHANNELS 3 Zrotation Xrotation Yrotation
        JOINT RightArm
        {
          OFFSET -10.2827 -0.00338 0.322123
          CHANNELS 3 Zrotation Xrotation Yrotation
          JOINT RightForeArm
          {
            OFFSET -26.364 0.099144 -1.42434
            CHANNELS 3 Zrotation Xrotation Yrotation
            JOINT RightHand
            {
              OFFSET -22.0324 0.085362 1.02216
              CHANNELS 3 Zrotation Xrotation Yrotation
              End Site
              {
                OFFSET -13.3284 -0.6 1.50291
              }
            }
          }
        }
      }
      JOINT LeftShoulder1
      {
        OFFSET 8.99 -0.362252 -0.22
        CHANNELS 3 Zrotation Xrotation Yrotation
        JOINT LeftArm
        {
          OFFSET 10.2827 -0.00337999 0.322123
          CHANNELS 3 Zrotation Xrotation Yrotation
          JOINT LeftForeArm
          {
            OFFSET 26.2597 0.099144 -1.42434
            CHANNELS 3 Zrotation Xrotation Yrotation
            JOINT LeftHand
            {
              OFFSET 22.0902 0.085362 1.02216
              CHANNELS 3 Zrotation Xrotation Yrotation
              End Site
              {
                OFFSET 13.419 -0.6 1.50291
              }
            }
          }
        }
      }
      JOINT Head
      {
        OFFSET 0 8.73416 0.011341
        CHANNELS 3 Zrotation Xrotation Yrotation
        End Site
        {
          OFFSET -0.29 12.7742 2.51395
        }
      }
    }
  }
  JOINT RightUpLeg
  {
    OFFSET -8.9458 -8.66707 0.101652
    CHANNELS 3 Zrotation Xrotation Yrotation
    JOINT RightLeg
    {
      OFFSET 0 -44.4227 1.3727
      CHANNELS 3 Zrotation Xrotation Yrotation
      JOINT RightFoot
      {
        OFFSET 0.253549 -42.0924 -1.46059
        CHANNELS 3 Zrotation Xrotation Yrotation
        JOINT RightToes
        {
          OFFSET 0.04 -4.41509 8.4991
          CHANNELS 3 Zrotation Xrotation Yrotation
          End Site
          {
            OFFSET -0.08 -0.137448 9.77979
          }
        }
      }
    }
  }
}
MOTION
Frames:	7
Frame Time:	0.0333333
44.405 99.415 5.06339 -6.12257 -0.72014 -93.4372 -6.58005 5.12375 2.34451 0.656982 20.5993 20.9599 -1.01164 -23.4765 -0.0145018 -1.31606e-009 8.75235e-006 -1.47729e-008 -1.34985 17.052 -1.81729 0.51084 -2.95675 -2.07484 36.6973 1.75859 0.0953217 40.6246 -14.8857 -6.99361 5.32367 35.4098 12.7205 -4.17334 9.77558 -1.3995 -43.6505 3.53163 -3.52539 -28.4097 -9.73365 -8.85593 4.53521 31.579 -30.6826 5.82328 9.61819 -0.917488 1.07955 -15.6013 0.0843431 -3.30667 -18.5913 -3.80213 2.20551 11.1827 -20.6805 9.96474 -10.4102 0.0520313 0.0462048 0.000530889 0.662642 
46.151 100.088 5.31328 -5.92831 0.23169 -93.8751 -5.54998 4.68062 2.47742 0.365194 18.7277 21.2201 -0.187664 -21.626 0.0946435 -1.31606e-009 8.75235e-006 -1.47729e-008 -0.759602 16.5097 -1.80271 0.864403 -3.19791 -2.04764 36.311 1.75064 0.110343 40.696 -10.1721 -6.50841 4.55053 33.1416 14.5866 -4.13445 9.77356 -1.27737 -43.8462 3.55227 -3.53648 -28.8615 -9.56495 -6.85358 3.80051 30.9187 -29.2564 5.82328 9.61819 -0.917488 0.928303 -14.9022 0.64573 -2.45635 -18.6239 -5.04962 1.65863 16.7134 -20.0114 9.13231 -11.3127 0.0997481 0.0462048 0.000530889 0.662642 
47.8504 100.571 5.44811 -5.73524 0.932257 -94.1313 -4.64887 3.95901 2.67986 0.0963071 17.5176 21.169 0.512503 -20.2018 0.166481 -1.31606e-009 8.75235e-006 -1.47729e-008 -0.722447 16.1441 -1.78675 1.46413 -3.6164 -2.12823 36.1346 1.74183 0.105047 40.3575 -7.20137 -6.02555 3.82336 30.5967 16.2756 -4.48537 9.75983 -1.23197 -43.7913 3.54821 -3.53678 -29.4102 -8.90729 -4.8259 3.04218 30.1805 -27.6199 5.82328 9.61819 -0.917488 1.03927 -14.4231 1.16175 -1.78153 -18.5165 -7.21458 -0.275564 22.913 -17.0433 8.99198 -12.1671 0.158083 0.0462048 0.000530889 0.662642 
49.5162 100.88 5.49357 -5.6508 1.36666 -94.3781 -3.974 3.11614 2.91154 -0.169924 16.8638 21.0259 1.11393 -18.9396 0.21345 -1.31606e-009 8.75235e-006 -1.47729e-008 -0.882434 15.8716 -1.7351 1.79579 -3.93972 -2.15844 36.1891 1.7401 0.0961853 39.8131 -6.83709 -5.44303 3.59058 27.9934 17.3209 -5.08117 9.74096 -1.30185 -43.4832 3.51729 -3.52241 -29.9799 -7.54867 -3.1385 2.08649 29.222 -25.4834 5.82328 9.61819 -0.917488 1.29571 -14.1782 1.5263 -1.41145 -18.2003 -5.29973 -1.13616 29.4016 -17.0432 9.42842 -12.454 0.197473 0.0462048 0.000530889 0.662642 
51.129 101.052 5.47127 -5.7099 1.49054 -94.6598 -3.56261 2.23691 3.16418 -0.511386 16.665 20.9115 1.43701 -17.8422 0.224878 -1.31606e-009 8.75235e-006 -1.47729e-008 -1.25558 15.6384 -1.60642 1.89447 -4.10396 -2.11185 36.2914 1.73938 0.0855485 39.318 -8.20542 -4.66626 3.65632 26.033 17.8264 -5.7408 9.72156 -1.39771 -43.2721 3.49499 -3.51014 -30.2535 -6.58731 -1.7914 0.77749 28.8372 -22.8748 5.82328 9.61819 -0.917488 1.54801 -14.0397 1.68995 -1.38432 -17.5087 -2.14164 -1.13222 35.9 -17.6475 10.1522 -12.6921 0.248774 0.0462048 0.000530889 0.662642 
52.6936 101.173 5.40928 -5.78901 1.45703 -94.9604 -3.28015 1.30287 3.3704 -0.892452 16.6554 20.9063 1.50299 -16.9051 0.212049 -1.31606e-009 8.75235e-006 -1.47729e-008 -1.59665 15.4025 -1.43144 1.8625 -4.26406 -2.00867 36.2688 1.73245 0.0711754 39.0493 -10.0348 -3.7704 3.60935 25.2807 18.0799 -6.21689 9.70743 -1.448 -43.3489 3.50265 -3.51372 -30.0406 -8.11805 -0.555039 -0.910322 30.9096 -19.9159 5.82328 9.61819 -0.917488 1.6521 -13.8193 1.59628 -1.55273 -16.4255 0.241685 -1.22108 41.8424 -17.2223 10.9185 -13.1886 0.328154 0.0462048 0.000530889 0.662642 
54.2374 101.276 5.31265 -5.75423 1.48488 -95.203 -2.96132 0.244696 3.47569 -1.14685 16.6693 20.9644 1.51985 -15.9739 0.194717 -1.31606e-009 8.75235e-006 -1.47729e-008 -1.57652 15.1009 -1.29802 1.69367 -4.49988 -1.88911 36.1151 1.72256 0.0611494 39.0404 -11.2439 -2.891 3.39457 25.1668 18.3532 -6.33416 9.70506 -1.4831 -43.4832 3.5175 -3.52282 -29.5768 -11.7748 0.731996 -2.77817 34.9614 -16.686 5.82328 9.61819 -0.917488 1.55736 -13.5167 1.29292 -1.73308 -14.9947 1.92465 -1.31586 46.7748 -16.6938 11.4933 -13.4968 0.386128 0.0462048 0.000530889 0.662642 
